<svg id="visual" viewBox="0 0 900 600" width="900" height="600" xmlns="http://www.w3.org/2000/svg" xmlns:xlink="http://www.w3.org/1999/xlink" version="1.1"><rect x="0" y="0" width="900" height="600" fill="#ffffff"></rect><defs><linearGradient id="grad1_0" x1="33.3%" y1="0%" x2="100%" y2="100%"><stop offset="20%" stop-color="#ffffff" stop-opacity="1"></stop><stop offset="80%" stop-color="#ffffff" stop-opacity="1"></stop></linearGradient></defs><defs><linearGradient id="grad2_0" x1="0%" y1="0%" x2="66.7%" y2="100%"><stop offset="20%" stop-color="#ffffff" stop-opacity="1"></stop><stop offset="80%" stop-color="#ffffff" stop-opacity="1"></stop></linearGradient></defs><g transform="translate(900, 0)"><path d="M0 162.2C-25.1 149.7 -50.2 137.2 -70.5 122.1C-90.8 107 -106.4 89.3 -118.6 68.5C-130.9 47.7 -140 23.9 -149 0L0 0Z" fill="#0896ff"></path></g><g transform="translate(0, 600)"><path d="M0 -144C29.4 -146.4 58.8 -148.9 78.5 -136C98.2 -123 108 -94.7 120.4 -69.5C132.7 -44.3 147.5 -22.1 162.2 0L0 0Z" fill="#0896ff"></path></g></svg>