<svg id="visual" viewBox="0 0 900 600" width="900" height="600" xmlns="http://www.w3.org/2000/svg" xmlns:xlink="http://www.w3.org/1999/xlink" version="1.1"><path d="M0 127L30 116C60 105 120 83 180 81C240 79 300 97 360 105C420 113 480 111 540 107C600 103 660 97 720 84C780 71 840 51 870 41L900 31L900 0L870 0C840 0 780 0 720 0C660 0 600 0 540 0C480 0 420 0 360 0C300 0 240 0 180 0C120 0 60 0 30 0L0 0Z" fill="#4600ff"></path><path d="M0 235L30 233C60 231 120 227 180 250C240 273 300 323 360 337C420 351 480 329 540 295C600 261 660 215 720 211C780 207 840 245 870 264L900 283L900 29L870 39C840 49 780 69 720 82C660 95 600 101 540 105C480 109 420 111 360 103C300 95 240 77 180 79C120 81 60 103 30 114L0 125Z" fill="#2018cd"></path><path d="M0 367L30 375C60 383 120 399 180 418C240 437 300 459 360 449C420 439 480 397 540 368C600 339 660 323 720 325C780 327 840 347 870 357L900 367L900 281L870 262C840 243 780 205 720 209C660 213 600 259 540 293C480 327 420 349 360 335C300 321 240 271 180 248C120 225 60 229 30 231L0 233Z" fill="#001a9b"></path><path d="M0 463L30 460C60 457 120 451 180 461C240 471 300 497 360 498C420 499 480 475 540 454C600 433 660 415 720 414C780 413 840 429 870 437L900 445L900 365L870 355C840 345 780 325 720 323C660 321 600 337 540 366C480 395 420 437 360 447C300 457 240 435 180 416C120 397 60 381 30 373L0 365Z" fill="#00156a"></path><path d="M0 601L30 601C60 601 120 601 180 601C240 601 300 601 360 601C420 601 480 601 540 601C600 601 660 601 720 601C780 601 840 601 870 601L900 601L900 443L870 435C840 427 780 411 720 412C660 413 600 431 540 452C480 473 420 497 360 496C300 495 240 469 180 459C120 449 60 455 30 458L0 461Z" fill="#00093b"></path></svg>